<?xml version="1.0" encoding="utf-8"?>
<!-- Generator: Adobe Illustrator 21.0.0, SVG Export Plug-In . SVG Version: 6.00 Build 0)  -->
<!DOCTYPE svg PUBLIC "-//W3C//DTD SVG 1.1//EN" "http://www.w3.org/Graphics/SVG/1.1/DTD/svg11.dtd">
<svg version="1.1" id="Layer_1" xmlns="http://www.w3.org/2000/svg" xmlns:xlink="http://www.w3.org/1999/xlink" x="0px" y="0px"
	 viewBox="0 0 428 29.3" style="enable-background:new 0 0 428 29.3;" xml:space="preserve">
<style type="text/css">
	.st0{fill:#FFFFFF;}
	.st1{fill:#3FB460;}
</style>
<g>
	<path class="st0" d="M17.4,1c1.2,0.4,2.2,0.9,3,1.6c0.8,0.7,1.4,1.5,1.9,2.5c0.4,1,0.7,2,0.7,3.1c0,1-0.2,2.1-0.6,3.1
		c-0.4,1-1.1,2-2,2.8c-0.9,0.8-2.1,1.5-3.6,2c-1.5,0.5-3.3,0.8-5.4,0.8H8.7v10c0,0.3,0,0.6,0.1,0.8c0.1,0.2,0.2,0.4,0.4,0.5
		c0.2,0.1,0.5,0.2,0.8,0.2c0.4,0.1,0.9,0.1,1.5,0.2v0.4H0v-0.4c0.6-0.1,1.1-0.1,1.5-0.2s0.6-0.1,0.8-0.2c0.2-0.1,0.3-0.3,0.4-0.5
		c0.1-0.2,0.1-0.5,0.1-0.8V2.5c0-0.3,0-0.6-0.1-0.8C2.6,1.5,2.5,1.3,2.3,1.2C2.1,1.1,1.9,1,1.5,1S0.6,0.9,0,0.8V0.4h13.3
		C14.8,0.4,16.2,0.6,17.4,1z M8.7,16.5h2.4c1.1,0,2.1-0.2,2.8-0.7c0.7-0.5,1.3-1.1,1.7-1.9c0.4-0.8,0.7-1.6,0.9-2.5
		c0.2-0.9,0.2-1.9,0.2-2.8c0-0.8-0.1-1.7-0.2-2.6c-0.2-0.9-0.4-1.7-0.8-2.5c-0.4-0.8-0.9-1.4-1.5-1.9c-0.6-0.5-1.4-0.8-2.3-0.8H8.7
		V16.5z"/>
	<path class="st0" d="M35,28.3c-1.8-0.7-3.3-1.7-4.6-3c-1.3-1.3-2.4-2.9-3.2-4.6c-0.8-1.8-1.2-3.8-1.2-5.9c0-2.1,0.4-4.1,1.2-5.9
		c0.8-1.8,1.8-3.3,3.2-4.6s2.9-2.3,4.6-3C36.8,0.4,38.7,0,40.6,0c2,0,3.8,0.4,5.6,1.1c1.8,0.7,3.3,1.7,4.6,3C52.2,5.4,53.2,7,54,8.8
		c0.8,1.8,1.2,3.8,1.2,5.9c0,2.1-0.4,4.1-1.2,5.9c-0.8,1.8-1.8,3.3-3.2,4.6c-1.3,1.3-2.9,2.3-4.6,3c-1.8,0.7-3.6,1.1-5.6,1.1
		C38.7,29.3,36.8,29,35,28.3z M37,1.5c-1,0.7-1.9,1.7-2.6,3S33.2,7.3,32.9,9c-0.4,1.7-0.6,3.6-0.6,5.6s0.2,3.9,0.6,5.6
		c0.4,1.7,0.9,3.2,1.6,4.5c0.7,1.3,1.6,2.3,2.6,3c1,0.7,2.2,1.1,3.6,1.1c1.3,0,2.5-0.4,3.6-1.1c1-0.7,1.9-1.7,2.6-3
		c0.7-1.3,1.2-2.8,1.6-4.5c0.4-1.7,0.6-3.6,0.6-5.6s-0.2-3.9-0.6-5.6s-0.9-3.2-1.6-4.5c-0.7-1.3-1.6-2.3-2.6-3S42,0.4,40.6,0.4
		C39.3,0.4,38.1,0.8,37,1.5z"/>
	<path class="st0" d="M70.7,29.1h-3.6L58.6,3.7c-0.2-0.7-0.5-1.3-1-1.9c-0.4-0.5-1.1-0.9-2.1-1.1V0.4h11.7v0.4
		c-1.2,0.1-2,0.5-2.3,1.1s-0.3,1.4,0,2.4l6.7,20.2h0.1l4.5-13.6l-2-7.2c-0.1-0.4-0.2-0.7-0.4-1c-0.1-0.3-0.3-0.6-0.5-0.9
		c-0.2-0.3-0.5-0.5-0.8-0.7c-0.3-0.2-0.7-0.3-1.2-0.4V0.4h11.6v0.4c-1.2,0.1-2,0.5-2.3,1.1c-0.3,0.6-0.4,1.4-0.1,2.4L86,24.9h0.1
		L91.9,5c0.2-0.6,0.3-1.2,0.3-1.7c0-0.5-0.1-0.9-0.4-1.2c-0.3-0.3-0.9-0.6-1.6-0.8c-0.7-0.2-1.8-0.4-3.2-0.5V0.4h9.1v0.4
		c-1.1,0.2-1.9,0.6-2.3,1.1c-0.4,0.5-0.8,1.2-1,2.1l-7.4,25.1h-3.8l-5-17.5L70.7,29.1z"/>
	<path class="st0" d="M119.2,7.3c-0.2-0.9-0.5-1.7-0.8-2.5c-0.3-0.8-0.7-1.5-1.3-2.1c-0.5-0.6-1.1-1.1-1.8-1.4
		c-0.7-0.4-1.5-0.5-2.4-0.5h-5.9v13.3h3.7c1.2,0,2.1-0.4,2.9-1.2c0.8-0.8,1.3-2,1.4-3.6h0.4v10.1H115c-0.2-1.6-0.7-2.8-1.4-3.6
		c-0.8-0.8-1.7-1.2-2.9-1.2h-3.7v14h5.7c1.9,0,3.4-0.6,4.5-1.8c1.1-1.2,2-2.7,2.6-4.7h0.4l-0.4,6.9H98.3v-0.4
		c0.6-0.1,1.1-0.1,1.5-0.2s0.6-0.1,0.8-0.2c0.2-0.1,0.3-0.3,0.4-0.5c0.1-0.2,0.1-0.5,0.1-0.8V2.5c0-0.3,0-0.6-0.1-0.8
		s-0.2-0.4-0.4-0.5c-0.2-0.1-0.5-0.2-0.8-0.2s-0.9-0.1-1.5-0.2V0.4h21.2l0.2,6.9H119.2z"/>
	<path class="st0" d="M140.4,1c1.2,0.4,2.2,0.9,3,1.6s1.4,1.5,1.9,2.5c0.4,1,0.7,2,0.7,3.1c0,1-0.2,1.9-0.6,2.8
		c-0.4,0.9-1,1.7-1.9,2.4c-0.8,0.7-1.9,1.3-3.2,1.7c-1.3,0.4-2.8,0.7-4.7,0.8c1.5,0.2,2.7,0.6,3.6,0.9c1,0.4,1.7,0.8,2.3,1.2
		c0.6,0.4,1.1,0.9,1.4,1.3c0.3,0.5,0.6,0.9,0.8,1.3l2.8,5c0.6,1,1.1,1.7,1.6,2.1c0.5,0.4,1.1,0.6,1.7,0.7v0.4H142
		c-0.4-0.7-0.9-1.4-1.3-2.2c-0.5-0.8-0.9-1.6-1.2-2.4l-2.2-4.4c-0.4-0.8-0.8-1.6-1.3-2.3c-0.5-0.7-1-1.3-1.6-1.7h-2.3v11
		c0,0.3,0,0.6,0.1,0.8c0.1,0.2,0.2,0.4,0.4,0.5c0.2,0.1,0.5,0.2,0.8,0.2c0.4,0.1,0.9,0.1,1.5,0.2v0.4h-11.5v-0.4
		c0.6-0.1,1.1-0.1,1.5-0.2c0.4-0.1,0.6-0.1,0.8-0.2c0.2-0.1,0.3-0.3,0.4-0.5c0.1-0.2,0.1-0.5,0.1-0.8V2.5c0-0.3,0-0.6-0.1-0.8
		c-0.1-0.2-0.2-0.4-0.4-0.5c-0.2-0.1-0.5-0.2-0.8-0.2c-0.4-0.1-0.9-0.1-1.5-0.2V0.4h12.9C137.8,0.4,139.2,0.6,140.4,1z M132.1,15.5
		h2c1.1,0,2.1-0.2,2.8-0.6c0.7-0.4,1.3-0.9,1.7-1.5c0.4-0.6,0.7-1.4,0.9-2.3c0.2-0.9,0.2-1.8,0.2-2.9c0-0.9-0.1-1.8-0.2-2.8
		c-0.2-0.9-0.4-1.7-0.8-2.4c-0.4-0.7-0.9-1.3-1.5-1.7c-0.6-0.4-1.4-0.7-2.3-0.7h-2.7V15.5z"/>
	<path class="st0" d="M168.8,5.6c-0.5-1-1.1-1.9-1.7-2.7c-0.7-0.8-1.4-1.4-2.2-1.8c-0.8-0.4-1.7-0.7-2.6-0.7c-1.4,0-2.5,0.3-3.4,1
		c-0.9,0.7-1.4,1.7-1.4,3.1c0,1.2,0.3,2.2,1,3.1c0.7,0.8,1.6,1.6,2.6,2.3c1,0.7,2.2,1.3,3.4,2c1.2,0.6,2.4,1.3,3.4,2.1
		c1,0.8,1.9,1.7,2.6,2.8c0.7,1.1,1,2.4,1,3.9c0,1.5-0.3,2.7-0.8,3.8c-0.5,1.1-1.3,2-2.2,2.7c-0.9,0.7-2,1.3-3.2,1.6
		c-1.2,0.4-2.5,0.6-3.9,0.6c-0.7,0-1.5,0-2.3-0.1c-0.8-0.1-1.5-0.2-2.3-0.4c-0.8-0.2-1.5-0.4-2.2-0.7c-0.7-0.3-1.3-0.5-1.9-0.8
		l-0.4-7.4h0.4c0.6,2.9,1.7,5.1,3.2,6.7c1.5,1.6,3.3,2.4,5.4,2.4c0.7,0,1.3-0.1,2-0.3c0.6-0.2,1.2-0.5,1.6-1c0.5-0.4,0.8-1,1.1-1.7
		c0.3-0.7,0.4-1.4,0.4-2.3c0-1.3-0.3-2.3-1-3.2c-0.7-0.9-1.6-1.6-2.6-2.3c-1-0.7-2.2-1.3-3.4-1.9c-1.2-0.6-2.4-1.3-3.4-2
		c-1-0.7-1.9-1.6-2.6-2.6s-1-2.2-1-3.7c0-1.2,0.2-2.3,0.7-3.3c0.5-1,1.1-1.8,2-2.5c0.9-0.7,1.9-1.2,3.1-1.6c1.2-0.4,2.5-0.6,3.9-0.6
		c1.2,0,2.6,0.1,4,0.4c1.4,0.3,2.7,0.8,3.8,1.4l0.4,7H170C169.7,7.7,169.3,6.6,168.8,5.6z"/>
	<path class="st1" d="M189.3,1.7c-0.1-0.2-0.2-0.4-0.4-0.5C188.7,1.1,188.4,1,188,1c-0.4-0.1-1-0.1-1.7-0.2V0.4h11v0.4
		c-0.7,0.1-1.3,0.1-1.7,0.2s-0.7,0.1-0.9,0.2c-0.2,0.1-0.4,0.3-0.4,0.5c-0.1,0.2-0.1,0.5-0.1,0.9v24.1c0,0.4,0,0.7,0.1,0.9
		c0.1,0.2,0.2,0.4,0.4,0.5c0.2,0.1,0.5,0.2,0.9,0.2s1,0.1,1.7,0.2v0.4h-11v-0.4c0.7-0.1,1.3-0.1,1.7-0.2c0.4-0.1,0.7-0.1,0.9-0.2
		c0.2-0.1,0.4-0.3,0.4-0.5c0.1-0.2,0.1-0.5,0.1-0.9V2.6C189.4,2.2,189.4,1.9,189.3,1.7z"/>
	<path class="st1" d="M205.3,3.2v23.6c0,0.4,0.1,0.7,0.2,0.9c0.1,0.2,0.4,0.4,0.8,0.5c0.4,0.1,0.9,0.2,1.5,0.2
		c0.7,0.1,1.5,0.1,2.5,0.2v0.4h-9.4v-0.4c0.8-0.1,1.5-0.1,2-0.2c0.5-0.1,0.9-0.1,1.2-0.2c0.3-0.1,0.5-0.3,0.6-0.5
		c0.1-0.2,0.2-0.5,0.2-0.9V3.6c0-0.4,0-0.7-0.1-1s-0.3-0.6-0.6-0.8c-0.3-0.2-0.7-0.4-1.2-0.6c-0.5-0.1-1.2-0.3-2.1-0.3V0.4h8.2
		l14.8,21.2v-19c0-0.4-0.1-0.7-0.2-0.9c-0.1-0.2-0.4-0.4-0.8-0.5c-0.4-0.1-0.9-0.2-1.5-0.2c-0.7-0.1-1.5-0.1-2.5-0.2V0.4h9.4v0.4
		c-0.8,0.1-1.5,0.1-2,0.2c-0.5,0.1-0.9,0.1-1.2,0.2c-0.3,0.1-0.5,0.3-0.6,0.5c-0.1,0.2-0.2,0.5-0.2,0.9v26.5h-0.4L205.3,3.2z"/>
	<path class="st1" d="M236.3,1.7c-0.1-0.2-0.2-0.4-0.4-0.5c-0.2-0.1-0.5-0.2-0.9-0.2c-0.4-0.1-1-0.1-1.7-0.2V0.4h11v0.4
		c-0.7,0.1-1.3,0.1-1.7,0.2c-0.4,0.1-0.7,0.1-0.9,0.2c-0.2,0.1-0.4,0.3-0.4,0.5c-0.1,0.2-0.1,0.5-0.1,0.9v16.9c0,1.4-0.2,2.8-0.7,4
		c-0.4,1.2-1,2.2-1.8,3.1c-0.8,0.9-1.7,1.5-2.7,2c-1,0.5-2.2,0.7-3.4,0.7c-1.1,0-1.9-0.2-2.3-0.6c-0.4-0.4-0.6-0.8-0.6-1.3
		c0-0.5,0.2-0.9,0.5-1.1c0.3-0.3,0.8-0.4,1.3-0.4c0.3,0,0.6,0.1,0.8,0.4c0.3,0.3,0.5,0.5,0.8,0.9c0.3,0.3,0.5,0.6,0.8,0.9
		c0.3,0.3,0.5,0.4,0.9,0.4c0.5,0,0.8-0.2,1-0.5c0.2-0.3,0.4-0.8,0.5-1.4c0.1-0.6,0.2-1.4,0.2-2.4v-3.4V2.6
		C236.4,2.2,236.4,1.9,236.3,1.7z"/>
	<path class="st1" d="M250,1.7c-0.1-0.2-0.2-0.4-0.4-0.5c-0.2-0.1-0.5-0.2-0.9-0.2c-0.4-0.1-1-0.1-1.7-0.2V0.4h11v0.4
		c-0.7,0.1-1.3,0.1-1.7,0.2c-0.4,0.1-0.7,0.1-0.9,0.2c-0.2,0.1-0.4,0.3-0.4,0.5c-0.1,0.2-0.1,0.5-0.1,0.9v16.6c0,3,0.7,5.3,2.2,6.8
		c1.5,1.5,3.4,2.3,5.9,2.3c1.3,0,2.5-0.2,3.6-0.7c1-0.5,1.9-1.2,2.7-2.1c0.7-0.9,1.3-2,1.7-3.2c0.4-1.3,0.6-2.7,0.6-4.2V2.6
		c0-0.4,0-0.7-0.1-0.9c-0.1-0.2-0.3-0.4-0.7-0.5c-0.3-0.1-0.8-0.2-1.5-0.2c-0.7-0.1-1.6-0.1-2.7-0.2V0.4h9.3v0.4
		c-0.9,0.1-1.6,0.1-2.1,0.2c-0.5,0.1-0.9,0.1-1.2,0.2c-0.3,0.1-0.4,0.3-0.5,0.5c-0.1,0.2-0.1,0.5-0.1,0.9v15.3
		c0,3.7-0.9,6.5-2.8,8.5c-1.9,2-4.5,2.9-7.8,2.9c-3.7,0-6.5-1-8.3-3.1c-1.8-2-2.7-4.8-2.7-8.4V2.6C250.2,2.2,250.1,1.9,250,1.7z"/>
	<path class="st1" d="M295.3,1c1.2,0.4,2.2,0.9,3,1.6c0.8,0.7,1.4,1.5,1.9,2.5c0.4,1,0.6,2,0.6,3.1c0,1-0.2,1.9-0.6,2.9
		c-0.4,0.9-1,1.8-1.8,2.5c-0.8,0.7-1.9,1.3-3.2,1.8c-1.3,0.5-2.9,0.7-4.8,0.8c1.2,0.2,2.3,0.5,3.1,0.9c0.8,0.4,1.5,0.7,2.1,1.1
		c0.5,0.4,1,0.8,1.3,1.2c0.3,0.4,0.6,0.8,0.9,1.2l3.1,5.1c0.7,1,1.3,1.8,2,2.2c0.6,0.4,1.3,0.7,2,0.8v0.4h-7
		c-0.5-0.6-0.9-1.3-1.4-2.1c-0.5-0.8-0.9-1.5-1.3-2.2l-2.3-4.2c-0.5-0.8-1-1.7-1.6-2.5c-0.6-0.8-1.2-1.4-1.9-1.8h-2.6v10.6
		c0,0.4,0,0.7,0.1,0.9c0.1,0.2,0.2,0.4,0.4,0.5c0.2,0.1,0.5,0.2,0.9,0.2s1,0.1,1.7,0.2v0.4h-11v-0.4c0.7-0.1,1.3-0.1,1.7-0.2
		c0.4-0.1,0.7-0.1,0.9-0.2c0.2-0.1,0.4-0.3,0.4-0.5c0.1-0.2,0.1-0.5,0.1-0.9V2.6c0-0.4,0-0.7-0.1-0.9c-0.1-0.2-0.2-0.4-0.4-0.5
		c-0.2-0.1-0.5-0.2-0.9-0.2c-0.4-0.1-1-0.1-1.7-0.2V0.4h12.3C292.7,0.4,294.1,0.6,295.3,1z M286.7,15.7h2.5c1.3,0,2.4-0.2,3.2-0.6
		s1.5-0.9,2-1.6s0.9-1.4,1.1-2.3c0.2-0.9,0.3-1.8,0.3-2.8c0-0.9-0.1-1.8-0.3-2.7c-0.2-0.9-0.5-1.7-0.9-2.4s-1-1.3-1.8-1.8
		c-0.7-0.4-1.7-0.7-2.8-0.7h-3.4V15.7z"/>
	<path class="st1" d="M306.1,3.5c-0.2-0.3-0.3-0.6-0.5-0.9s-0.4-0.6-0.7-0.8c-0.3-0.2-0.6-0.5-1-0.6c-0.4-0.2-0.8-0.3-1.4-0.3V0.4
		h11.1v0.4c-0.8,0.1-1.4,0.2-1.8,0.4c-0.4,0.2-0.7,0.4-0.9,0.6c-0.2,0.3-0.2,0.6-0.1,0.9c0.1,0.4,0.2,0.7,0.4,1.2l6.8,13.5h0.1
		L324,4.8c0.5-1.2,0.5-2.1-0.1-2.8C323.3,1.5,322,1,320,0.8V0.4h8.8v0.4c-1.1,0.2-2,0.6-2.5,1.1c-0.5,0.5-1,1.1-1.4,1.9l-6.3,13.9v9
		c0,0.4,0,0.7,0.1,0.9c0.1,0.2,0.2,0.4,0.4,0.5c0.2,0.1,0.5,0.2,0.9,0.2c0.4,0.1,1,0.1,1.7,0.2v0.4h-11v-0.4
		c0.7-0.1,1.3-0.1,1.7-0.2c0.4-0.1,0.7-0.1,0.9-0.2c0.2-0.1,0.4-0.3,0.4-0.5c0.1-0.2,0.1-0.5,0.1-0.9v-8.2L306.1,3.5z"/>
	<path class="st0" d="M344.7,1.7c-0.1-0.2-0.2-0.4-0.4-0.5c-0.2-0.1-0.5-0.2-0.8-0.2c-0.4-0.1-0.9-0.1-1.5-0.2V0.4h11.5v0.4
		c-0.6,0.1-1.1,0.1-1.5,0.2c-0.4,0.1-0.6,0.1-0.8,0.2c-0.2,0.1-0.3,0.3-0.4,0.5c-0.1,0.2-0.1,0.5-0.1,0.8v26h5.3
		c1.9,0,3.4-0.6,4.5-1.8c1.1-1.2,2-2.7,2.6-4.7h0.4l-0.4,6.9h-21.1v-0.4c0.6-0.1,1.1-0.1,1.5-0.2c0.4-0.1,0.6-0.1,0.8-0.2
		c0.2-0.1,0.3-0.3,0.4-0.5c0.1-0.2,0.1-0.5,0.1-0.8V2.5C344.8,2.2,344.8,1.9,344.7,1.7z"/>
	<path class="st0" d="M390.7,27.3c0.1,0.2,0.3,0.4,0.5,0.5c0.2,0.1,0.4,0.3,0.7,0.4c0.3,0.1,0.6,0.2,1.1,0.3v0.4h-11.7v-0.4
		c1.2-0.1,2.1-0.4,2.5-0.7c0.5-0.3,0.5-0.9,0.2-1.9l-2.4-6.7h-10.1l-2.1,6.8c-0.2,0.5-0.2,1-0.1,1.2c0.1,0.3,0.3,0.5,0.7,0.7
		c0.4,0.1,1,0.3,1.7,0.3s1.7,0.1,2.9,0.2v0.4h-9.1v-0.4c0.6-0.1,1-0.2,1.4-0.3c0.4-0.1,0.7-0.2,1-0.4c0.3-0.1,0.5-0.4,0.7-0.6
		c0.2-0.3,0.3-0.6,0.4-1l8.1-26h3.6l9.8,26.3C390.4,26.8,390.6,27.1,390.7,27.3z M381.4,18.8l-5.2-14.6h-0.1l-4.6,14.6H381.4z"/>
	<path class="st0" d="M402.7,29.1h-3.6l-8.6-25.4c-0.2-0.7-0.5-1.3-1-1.9s-1.1-0.9-2.1-1.1V0.4h11.7v0.4c-1.2,0.1-2,0.5-2.3,1.1
		c-0.3,0.6-0.3,1.4,0,2.4l6.7,20.2h0.1l4.5-13.6l-2-7.2c-0.1-0.4-0.2-0.7-0.4-1c-0.1-0.3-0.3-0.6-0.5-0.9c-0.2-0.3-0.5-0.5-0.8-0.7
		c-0.3-0.2-0.7-0.3-1.2-0.4V0.4h11.6v0.4c-1.2,0.1-2,0.5-2.3,1.1c-0.3,0.6-0.4,1.4-0.1,2.4l5.5,20.7h0.1L423.8,5
		c0.2-0.6,0.3-1.2,0.3-1.7c0-0.5-0.1-0.9-0.4-1.2c-0.3-0.3-0.9-0.6-1.6-0.8c-0.7-0.2-1.8-0.4-3.2-0.5V0.4h9.1v0.4
		c-1.1,0.2-1.9,0.6-2.3,1.1c-0.4,0.5-0.8,1.2-1,2.1l-7.4,25.1h-3.8l-5-17.5L402.7,29.1z"/>
</g>
</svg>
